<svg xmlns="http://www.w3.org/2000/svg" version="1.1" xmlns:xlink="http://www.w3.org/1999/xlink" xmlns:svgjs="http://svgjs.com/svgjs" width="1440" height="720" preserveAspectRatio="none" viewBox="0 0 1440 720"><g mask="url(&quot;#SvgjsMask1043&quot;)" fill="none"><rect width="1440" height="720" x="0" y="0" fill="rgba(14, 42, 71, 1)"></rect><path d="M360 86.9C314.19 86.9 301.02 133.1 242.61 180C211.02 205.36 210.92 205.25 180 231.43C104.61 295.25 30 292.83 30 360C30 432.12 100.72 508.12 180 510C265.72 512.03 284.31 359.84 360 367.83C426.41 374.84 429.11 447.64 464.21 540C496.03 623.72 523.9 668.09 493.85 720C471.8 758.09 426.92 720 360 720C287.5 720 260.11 755.08 215 720C170.11 685.08 197.39 580 180 580C162.63 580 190.28 685.16 145.48 720C100.28 755.16 32.51 760.23 0 720C-40.23 670.23 0 630 0 540C0 450 0 450 0 360C0 270 0 270 0 180C0 90 -45 45 0 0C45 -45 90 0 180 0C270 0 270 0 360 0C450 0 450 0 540 0C630 0 630 0 720 0C799.57 0 806.34 -12.66 879.13 0C896.34 2.99 882.64 28.19 900 31.3C983.08 46.19 994 47.5 1080 36C1111 31.85 1103.4 6.12 1134 0C1193.4 -11.88 1197 0 1260 0C1350 0 1395 -45 1440 0C1485 45 1440 90 1440 180C1440 270 1440 270 1440 360C1440 450 1440 450 1440 540C1440 630 1485 675 1440 720C1395 765 1350 720 1260 720C1170 720 1170 720 1080 720C990 720 990 720 900 720C810 720 810 720 720 720C649.57 720 609.74 759.51 579.13 720C540.02 669.51 549.08 619.04 580.56 540C619.51 442.2 633.95 396.16 720 366.32C793.67 340.77 826.32 431.51 900 429.23C928.32 428.35 924 393.19 924 360C924 339.83 920.03 323.41 900 322.5C818.03 318.79 810.55 344.08 720 350.77C630.55 357.38 612.62 387.26 540 349.09C450.15 301.87 457.27 270.62 395.06 180C367.27 139.52 390.42 86.9 360 86.9" stroke="rgba(51, 121, 194, 1)" stroke-width="2"></path><path d="M1080 513.95C1042.21 513.95 1006.67 524.3 1006.67 540C1006.67 556.74 1041.02 578.82 1080 578.82C1153.84 578.82 1232.31 556.36 1232.31 540C1232.31 523.92 1155.03 513.95 1080 513.95" stroke="rgba(51, 121, 194, 1)" stroke-width="2"></path><path d="M180 112C98.14 159.65 46.5 208.93 0 180C-43.5 152.93 -45 45 0 0C45 -45 90 0 180 0C244.62 0 309.23 -24.1 309.23 0C309.23 31.9 252.75 69.65 180 112" stroke="rgba(51, 121, 194, 1)" stroke-width="2"></path><path d="M453.51 180C413.49 97.91 378.08 51.94 403.04 0C421.33 -38.06 471.52 0 540 0C630 0 630 0 720 0C766.95 0 779.98 -24.34 813.91 0C869.98 40.22 840.44 86.79 900 129.13C967.05 176.79 983.63 154.36 1067.14 180C1073.63 181.99 1074.15 184.39 1080 184.39C1082.53 184.39 1081.65 181.87 1083.91 180C1171.65 107.36 1160.62 72.42 1260 35.36C1338.67 6.02 1388.16 5.55 1440 47.21C1478.16 77.87 1440 113.61 1440 180C1440 270 1440 270 1440 360C1440 450 1440 450 1440 540C1440 630 1476.43 666.43 1440 720C1415.23 756.43 1327.4 754.84 1317.6 720C1302.09 664.84 1404.19 619.56 1389.38 540C1375.39 464.88 1336.85 431.81 1260 410.63C1182.16 389.18 1159.87 469.39 1080 454.74C1021.87 444.08 1025.76 412.43 984 360C935.76 299.43 961.23 257.65 900 228.75C829.23 195.34 808.64 222.54 720 235.38C628.64 248.62 617.66 297.05 540 280.91C484.41 269.36 481.97 238.36 453.51 180" stroke="rgba(51, 121, 194, 1)" stroke-width="2"></path><path d="M0 505.38C10.14 505.38 25.91 517.7 34.62 540C67.83 625.01 95.78 657.9 83.84 720C78.47 747.9 13.32 748.6 0 720C-28.6 658.6 0 630 0 540C0 522.69 -7.17 505.38 0 505.38" stroke="rgba(51, 121, 194, 1)" stroke-width="2"></path><path d="M643.94 540C662.43 484.77 674.95 445.26 720 445.26C782.21 445.26 798.62 484.02 858.46 540C888.62 568.21 865.61 593.91 900 613.64C976.38 657.44 991.8 635.52 1080 667.06C1140.49 688.7 1197.39 706.15 1197.39 720C1197.39 732.62 1138.7 720 1080 720C990 720 990 720 900 720C810 720 810 720 720 720C674.02 720 640.87 750.35 628.04 720C602.84 660.35 616.45 622.14 643.94 540" stroke="rgba(51, 121, 194, 1)" stroke-width="2"></path><path d="M277.5 720C277.5 662.99 320.04 555 360 555C399.36 555 436.15 661.86 436.15 720C436.15 744.36 398.08 720 360 720C318.75 720 277.5 745.49 277.5 720" stroke="rgba(51, 121, 194, 1)" stroke-width="2"></path><path d="M180 12C91.63 44.02 65.63 74.62 0 70.24C-24.37 68.62 -25.26 9.86 0 0C64.74 -25.26 90 0 180 0C186.93 0 193.85 -2.58 193.85 0C193.85 3.42 188.56 8.9 180 12" stroke="rgba(51, 121, 194, 1)" stroke-width="2"></path><path d="M511.95 180C496.16 94.15 489.35 73.95 500.87 0C503.37 -16.05 520.43 0 540 0C630 0 630 0 720 0C734.35 0 748.7 -10.2 748.7 0C748.7 31.05 744.01 47.17 720 82.5C682.86 137.17 679.86 141.32 626.4 180C589.86 206.44 579.02 212.73 540 212.73C521.8 212.73 515.72 200.52 511.95 180" stroke="rgba(51, 121, 194, 1)" stroke-width="2"></path><path d="M1181.74 180C1181.74 143.55 1213.52 126.33 1260 115.71C1342.65 96.82 1372.22 96.77 1440 120.98C1462.22 128.91 1440 150.49 1440 180C1440 270 1440 270 1440 360C1440 370 1444.14 380 1440 380C1434.14 380 1432.29 366.83 1420 360C1342.29 316.83 1329.67 332.64 1260 280C1210.54 242.64 1181.74 225.7 1181.74 180" stroke="rgba(51, 121, 194, 1)" stroke-width="2"></path><path d="M1044 360C1044 329.72 1054.93 294.15 1080 294.15C1116.48 294.15 1167.1 332.77 1167.1 360C1167.1 383.46 1120.03 395.53 1080 395.53C1058.48 395.53 1044 380.41 1044 360" stroke="rgba(51, 121, 194, 1)" stroke-width="2"></path><path d="M707.32 540C709.47 530.22 712.49 524.21 720 524.21C730.37 524.21 736.02 528.14 743.08 540C794.26 626.03 843.8 662.83 836.47 720C832.26 752.83 778.24 720 720 720C698.48 720 678.17 737.17 676.96 720C671.83 647.17 687.95 628.12 707.32 540" stroke="rgba(51, 121, 194, 1)" stroke-width="2"></path><path d="M0 664.14C5.75 664.14 22.19 699.6 22.19 720C22.19 727.53 3.15 727.94 0 720C-7.94 700.01 -5.34 664.14 0 664.14" stroke="rgba(51, 121, 194, 1)" stroke-width="2"></path><path d="M340 720C340 706.18 350.31 680 360 680C369.54 680 378.46 705.91 378.46 720C378.46 725.91 369.23 720 360 720C350 720 340 726.18 340 720" stroke="rgba(51, 121, 194, 1)" stroke-width="2"></path></g><defs><mask id="SvgjsMask1043"><rect width="1440" height="720" fill="#ffffff"></rect></mask></defs></svg>