<svg xmlns="http://www.w3.org/2000/svg" version="1.1" xmlns:xlink="http://www.w3.org/1999/xlink" xmlns:svgjs="http://svgjs.com/svgjs" width="1440" height="720" preserveAspectRatio="none" viewBox="0 0 1440 720"><g mask="url(&quot;#SvgjsMask1012&quot;)" fill="none"><rect width="1440" height="720" x="0" y="0" fill="#0e2a47"></rect><path d="M-63.63 492.23L-63.63 492.23" stroke="#132e65" stroke-width="1.5"></path><path d="M-63.63 492.23L77.09 512.17" stroke="#132e65" stroke-width="1.5"></path><path d="M-63.63 492.23L-75.2 685.25" stroke="#132e65" stroke-width="1.5"></path><path d="M-63.63 492.23L93.02 688.47" stroke="#132e65" stroke-width="1.5"></path><path d="M-63.63 492.23L190.97 492.17" stroke="#132e65" stroke-width="1.5"></path><path d="M-63.63 492.23L-91.69 854.1" stroke="#132e65" stroke-width="1.5"></path><path d="M-63.63 492.23L94.27 848.73" stroke="#132e65" stroke-width="1.5"></path><path d="M-75.2 685.25L-75.2 685.25" stroke="#132e65" stroke-width="1.5"></path><path d="M-75.2 685.25L93.02 688.47" stroke="#132e65" stroke-width="1.5"></path><path d="M-75.2 685.25L-91.69 854.1" stroke="#132e65" stroke-width="1.5"></path><path d="M-75.2 685.25L77.09 512.17" stroke="#132e65" stroke-width="1.5"></path><path d="M-75.2 685.25L94.27 848.73" stroke="#132e65" stroke-width="1.5"></path><path d="M-91.69 854.1L-91.69 854.1" stroke="#132e65" stroke-width="1.5"></path><path d="M-91.69 854.1L94.27 848.73" stroke="#132e65" stroke-width="1.5"></path><path d="M-91.69 854.1L93.02 688.47" stroke="#132e65" stroke-width="1.5"></path><path d="M-91.69 854.1L196.17 808.06" stroke="#132e65" stroke-width="1.5"></path><path d="M77.09 512.17L77.09 512.17" stroke="#132e65" stroke-width="1.5"></path><path d="M77.09 512.17L190.97 492.17" stroke="#132e65" stroke-width="1.5"></path><path d="M77.09 512.17L93.02 688.47" stroke="#132e65" stroke-width="1.5"></path><path d="M93.02 688.47L93.02 688.47" stroke="#132e65" stroke-width="1.5"></path><path d="M93.02 688.47L196.17 808.06" stroke="#132e65" stroke-width="1.5"></path><path d="M93.02 688.47L94.27 848.73" stroke="#132e65" stroke-width="1.5"></path><path d="M93.02 688.47L190.97 492.17" stroke="#132e65" stroke-width="1.5"></path><path d="M94.27 848.73L94.27 848.73" stroke="#132e65" stroke-width="1.5"></path><path d="M94.27 848.73L196.17 808.06" stroke="#132e65" stroke-width="1.5"></path><path d="M190.97 492.17L190.97 492.17" stroke="#132e65" stroke-width="1.5"></path><path d="M190.97 492.17L347.32 515.47" stroke="#132e65" stroke-width="1.5"></path><path d="M190.97 492.17L375.53 654.92" stroke="#132e65" stroke-width="1.5"></path><path d="M196.17 808.06L196.17 808.06" stroke="#132e65" stroke-width="1.5"></path><path d="M196.17 808.06L399.36 854.31" stroke="#132e65" stroke-width="1.5"></path><path d="M347.32 515.47L347.32 515.47" stroke="#132e65" stroke-width="1.5"></path><path d="M347.32 515.47L375.53 654.92" stroke="#132e65" stroke-width="1.5"></path><path d="M347.32 515.47L554.54 539.51" stroke="#132e65" stroke-width="1.5"></path><path d="M347.32 515.47L534.23 376.06" stroke="#132e65" stroke-width="1.5"></path><path d="M347.32 515.47L540.84 703.94" stroke="#132e65" stroke-width="1.5"></path><path d="M347.32 515.47L77.09 512.17" stroke="#132e65" stroke-width="1.5"></path><path d="M375.53 654.92L375.53 654.92" stroke="#132e65" stroke-width="1.5"></path><path d="M375.53 654.92L540.84 703.94" stroke="#132e65" stroke-width="1.5"></path><path d="M375.53 654.92L399.36 854.31" stroke="#132e65" stroke-width="1.5"></path><path d="M375.53 654.92L554.54 539.51" stroke="#132e65" stroke-width="1.5"></path><path d="M399.36 854.31L399.36 854.31" stroke="#132e65" stroke-width="1.5"></path><path d="M399.36 854.31L502.89 832.78" stroke="#132e65" stroke-width="1.5"></path><path d="M399.36 854.31L540.84 703.94" stroke="#132e65" stroke-width="1.5"></path><path d="M399.36 854.31L654.57 833.27" stroke="#132e65" stroke-width="1.5"></path><path d="M534.23 376.06L534.23 376.06" stroke="#132e65" stroke-width="1.5"></path><path d="M534.23 376.06L689.46 371.24" stroke="#132e65" stroke-width="1.5"></path><path d="M534.23 376.06L554.54 539.51" stroke="#132e65" stroke-width="1.5"></path><path d="M554.54 539.51L554.54 539.51" stroke="#132e65" stroke-width="1.5"></path><path d="M554.54 539.51L540.84 703.94" stroke="#132e65" stroke-width="1.5"></path><path d="M554.54 539.51L697.68 667.54" stroke="#132e65" stroke-width="1.5"></path><path d="M540.84 703.94L540.84 703.94" stroke="#132e65" stroke-width="1.5"></path><path d="M540.84 703.94L502.89 832.78" stroke="#132e65" stroke-width="1.5"></path><path d="M540.84 703.94L697.68 667.54" stroke="#132e65" stroke-width="1.5"></path><path d="M540.84 703.94L654.57 833.27" stroke="#132e65" stroke-width="1.5"></path><path d="M502.89 832.78L502.89 832.78" stroke="#132e65" stroke-width="1.5"></path><path d="M502.89 832.78L654.57 833.27" stroke="#132e65" stroke-width="1.5"></path><path d="M502.89 832.78L375.53 654.92" stroke="#132e65" stroke-width="1.5"></path><path d="M689.46 371.24L689.46 371.24" stroke="#132e65" stroke-width="1.5"></path><path d="M689.46 371.24L823.02 520.99" stroke="#132e65" stroke-width="1.5"></path><path d="M689.46 371.24L554.54 539.51" stroke="#132e65" stroke-width="1.5"></path><path d="M689.46 371.24L861.56 198.99" stroke="#132e65" stroke-width="1.5"></path><path d="M697.68 667.54L697.68 667.54" stroke="#132e65" stroke-width="1.5"></path><path d="M697.68 667.54L835.04 704.64" stroke="#132e65" stroke-width="1.5"></path><path d="M654.57 833.27L654.57 833.27" stroke="#132e65" stroke-width="1.5"></path><path d="M654.57 833.27L697.68 667.54" stroke="#132e65" stroke-width="1.5"></path><path d="M861.56 198.99L861.56 198.99" stroke="#132e65" stroke-width="1.5"></path><path d="M861.56 198.99L1000.17 252.25" stroke="#132e65" stroke-width="1.5"></path><path d="M861.56 198.99L960.1 393.95" stroke="#132e65" stroke-width="1.5"></path><path d="M861.56 198.99L945.6 -57.67" stroke="#132e65" stroke-width="1.5"></path><path d="M861.56 198.99L1150.62 222.4" stroke="#132e65" stroke-width="1.5"></path><path d="M823.02 520.99L823.02 520.99" stroke="#132e65" stroke-width="1.5"></path><path d="M823.02 520.99L969.07 560.12" stroke="#132e65" stroke-width="1.5"></path><path d="M823.02 520.99L835.04 704.64" stroke="#132e65" stroke-width="1.5"></path><path d="M823.02 520.99L960.1 393.95" stroke="#132e65" stroke-width="1.5"></path><path d="M835.04 704.64L835.04 704.64" stroke="#132e65" stroke-width="1.5"></path><path d="M835.04 704.64L971.13 685.33" stroke="#132e65" stroke-width="1.5"></path><path d="M835.04 704.64L944.64 788.25" stroke="#132e65" stroke-width="1.5"></path><path d="M835.04 704.64L969.07 560.12" stroke="#132e65" stroke-width="1.5"></path><path d="M945.6 -57.67L945.6 -57.67" stroke="#132e65" stroke-width="1.5"></path><path d="M945.6 -57.67L1099.24 -58.78" stroke="#132e65" stroke-width="1.5"></path><path d="M945.6 -57.67L1000.17 252.25" stroke="#132e65" stroke-width="1.5"></path><path d="M945.6 -57.67L1289.59 -90.1" stroke="#132e65" stroke-width="1.5"></path><path d="M945.6 -57.67L1150.62 222.4" stroke="#132e65" stroke-width="1.5"></path><path d="M945.6 -57.67L1299.21 64.35" stroke="#132e65" stroke-width="1.5"></path><path d="M1000.17 252.25L1000.17 252.25" stroke="#132e65" stroke-width="1.5"></path><path d="M1000.17 252.25L960.1 393.95" stroke="#132e65" stroke-width="1.5"></path><path d="M1000.17 252.25L1150.62 222.4" stroke="#132e65" stroke-width="1.5"></path><path d="M960.1 393.95L960.1 393.95" stroke="#132e65" stroke-width="1.5"></path><path d="M960.1 393.95L969.07 560.12" stroke="#132e65" stroke-width="1.5"></path><path d="M960.1 393.95L1143 396.15" stroke="#132e65" stroke-width="1.5"></path><path d="M969.07 560.12L969.07 560.12" stroke="#132e65" stroke-width="1.5"></path><path d="M969.07 560.12L971.13 685.33" stroke="#132e65" stroke-width="1.5"></path><path d="M969.07 560.12L1113.18 657.63" stroke="#132e65" stroke-width="1.5"></path><path d="M971.13 685.33L971.13 685.33" stroke="#132e65" stroke-width="1.5"></path><path d="M971.13 685.33L944.64 788.25" stroke="#132e65" stroke-width="1.5"></path><path d="M944.64 788.25L944.64 788.25" stroke="#132e65" stroke-width="1.5"></path><path d="M944.64 788.25L1088.37 792.89" stroke="#132e65" stroke-width="1.5"></path><path d="M944.64 788.25L1113.18 657.63" stroke="#132e65" stroke-width="1.5"></path><path d="M1099.24 -58.78L1099.24 -58.78" stroke="#132e65" stroke-width="1.5"></path><path d="M1099.24 -58.78L1289.59 -90.1" stroke="#132e65" stroke-width="1.5"></path><path d="M1099.24 -58.78L1299.21 64.35" stroke="#132e65" stroke-width="1.5"></path><path d="M1150.62 222.4L1150.62 222.4" stroke="#132e65" stroke-width="1.5"></path><path d="M1150.62 222.4L1240.88 255.54" stroke="#132e65" stroke-width="1.5"></path><path d="M1150.62 222.4L1143 396.15" stroke="#132e65" stroke-width="1.5"></path><path d="M1143 396.15L1143 396.15" stroke="#132e65" stroke-width="1.5"></path><path d="M1143 396.15L1259.02 386.94" stroke="#132e65" stroke-width="1.5"></path><path d="M1143 396.15L1145.61 531.07" stroke="#132e65" stroke-width="1.5"></path><path d="M1143 396.15L1240.88 255.54" stroke="#132e65" stroke-width="1.5"></path><path d="M1145.61 531.07L1145.61 531.07" stroke="#132e65" stroke-width="1.5"></path><path d="M1145.61 531.07L1113.18 657.63" stroke="#132e65" stroke-width="1.5"></path><path d="M1113.18 657.63L1113.18 657.63" stroke="#132e65" stroke-width="1.5"></path><path d="M1113.18 657.63L1088.37 792.89" stroke="#132e65" stroke-width="1.5"></path><path d="M1088.37 792.89L1088.37 792.89" stroke="#132e65" stroke-width="1.5"></path><path d="M1289.59 -90.1L1289.59 -90.1" stroke="#132e65" stroke-width="1.5"></path><path d="M1289.59 -90.1L1406.41 -39.97" stroke="#132e65" stroke-width="1.5"></path><path d="M1289.59 -90.1L1299.21 64.35" stroke="#132e65" stroke-width="1.5"></path><path d="M1289.59 -90.1L1424.81 59.19" stroke="#132e65" stroke-width="1.5"></path><path d="M1299.21 64.35L1299.21 64.35" stroke="#132e65" stroke-width="1.5"></path><path d="M1299.21 64.35L1424.81 59.19" stroke="#132e65" stroke-width="1.5"></path><path d="M1299.21 64.35L1406.41 -39.97" stroke="#132e65" stroke-width="1.5"></path><path d="M1299.21 64.35L1240.88 255.54" stroke="#132e65" stroke-width="1.5"></path><path d="M1240.88 255.54L1240.88 255.54" stroke="#132e65" stroke-width="1.5"></path><path d="M1240.88 255.54L1259.02 386.94" stroke="#132e65" stroke-width="1.5"></path><path d="M1240.88 255.54L1392.64 251.12" stroke="#132e65" stroke-width="1.5"></path><path d="M1240.88 255.54L1406.95 358.16" stroke="#132e65" stroke-width="1.5"></path><path d="M1259.02 386.94L1259.02 386.94" stroke="#132e65" stroke-width="1.5"></path><path d="M1259.02 386.94L1406.95 358.16" stroke="#132e65" stroke-width="1.5"></path><path d="M1259.02 386.94L1281.05 541.64" stroke="#132e65" stroke-width="1.5"></path><path d="M1281.05 541.64L1281.05 541.64" stroke="#132e65" stroke-width="1.5"></path><path d="M1281.05 541.64L1408.74 532.07" stroke="#132e65" stroke-width="1.5"></path><path d="M1281.05 541.64L1145.61 531.07" stroke="#132e65" stroke-width="1.5"></path><path d="M1281.05 541.64L1308.21 691.39" stroke="#132e65" stroke-width="1.5"></path><path d="M1308.21 691.39L1308.21 691.39" stroke="#132e65" stroke-width="1.5"></path><path d="M1308.21 691.39L1272.4 807.41" stroke="#132e65" stroke-width="1.5"></path><path d="M1308.21 691.39L1442.23 661.98" stroke="#132e65" stroke-width="1.5"></path><path d="M1308.21 691.39L1440.69 803.63" stroke="#132e65" stroke-width="1.5"></path><path d="M1272.4 807.41L1272.4 807.41" stroke="#132e65" stroke-width="1.5"></path><path d="M1272.4 807.41L1440.69 803.63" stroke="#132e65" stroke-width="1.5"></path><path d="M1272.4 807.41L1088.37 792.89" stroke="#132e65" stroke-width="1.5"></path><path d="M1272.4 807.41L1113.18 657.63" stroke="#132e65" stroke-width="1.5"></path><path d="M1272.4 807.41L1442.23 661.98" stroke="#132e65" stroke-width="1.5"></path><path d="M1272.4 807.41L1281.05 541.64" stroke="#132e65" stroke-width="1.5"></path><path d="M1406.41 -39.97L1406.41 -39.97" stroke="#132e65" stroke-width="1.5"></path><path d="M1406.41 -39.97L1424.81 59.19" stroke="#132e65" stroke-width="1.5"></path><path d="M1424.81 59.19L1424.81 59.19" stroke="#132e65" stroke-width="1.5"></path><path d="M1392.64 251.12L1392.64 251.12" stroke="#132e65" stroke-width="1.5"></path><path d="M1392.64 251.12L1406.95 358.16" stroke="#132e65" stroke-width="1.5"></path><path d="M1392.64 251.12L1559.18 341.22" stroke="#132e65" stroke-width="1.5"></path><path d="M1406.95 358.16L1406.95 358.16" stroke="#132e65" stroke-width="1.5"></path><path d="M1408.74 532.07L1408.74 532.07" stroke="#132e65" stroke-width="1.5"></path><path d="M1408.74 532.07L1442.23 661.98" stroke="#132e65" stroke-width="1.5"></path><path d="M1408.74 532.07L1560.55 489.22" stroke="#132e65" stroke-width="1.5"></path><path d="M1408.74 532.07L1406.95 358.16" stroke="#132e65" stroke-width="1.5"></path><path d="M1408.74 532.07L1308.21 691.39" stroke="#132e65" stroke-width="1.5"></path><path d="M1442.23 661.98L1442.23 661.98" stroke="#132e65" stroke-width="1.5"></path><path d="M1442.23 661.98L1572.67 678.99" stroke="#132e65" stroke-width="1.5"></path><path d="M1442.23 661.98L1440.69 803.63" stroke="#132e65" stroke-width="1.5"></path><path d="M1440.69 803.63L1440.69 803.63" stroke="#132e65" stroke-width="1.5"></path><path d="M1440.69 803.63L1592.09 803.83" stroke="#132e65" stroke-width="1.5"></path><path d="M1440.69 803.63L1572.67 678.99" stroke="#132e65" stroke-width="1.5"></path><path d="M1440.69 803.63L1408.74 532.07" stroke="#132e65" stroke-width="1.5"></path><path d="M1559.3 -65.88L1559.3 -65.88" stroke="#132e65" stroke-width="1.5"></path><path d="M1559.3 -65.88L1587.48 70.15" stroke="#132e65" stroke-width="1.5"></path><path d="M1559.3 -65.88L1406.41 -39.97" stroke="#132e65" stroke-width="1.5"></path><path d="M1587.48 70.15L1587.48 70.15" stroke="#132e65" stroke-width="1.5"></path><path d="M1587.48 70.15L1609.85 189.5" stroke="#132e65" stroke-width="1.5"></path><path d="M1587.48 70.15L1424.81 59.19" stroke="#132e65" stroke-width="1.5"></path><path d="M1587.48 70.15L1406.41 -39.97" stroke="#132e65" stroke-width="1.5"></path><path d="M1609.85 189.5L1609.85 189.5" stroke="#132e65" stroke-width="1.5"></path><path d="M1609.85 189.5L1559.18 341.22" stroke="#132e65" stroke-width="1.5"></path><path d="M1559.18 341.22L1559.18 341.22" stroke="#132e65" stroke-width="1.5"></path><path d="M1559.18 341.22L1560.55 489.22" stroke="#132e65" stroke-width="1.5"></path><path d="M1559.18 341.22L1406.95 358.16" stroke="#132e65" stroke-width="1.5"></path><path d="M1559.18 341.22L1408.74 532.07" stroke="#132e65" stroke-width="1.5"></path><path d="M1560.55 489.22L1560.55 489.22" stroke="#132e65" stroke-width="1.5"></path><path d="M1560.55 489.22L1572.67 678.99" stroke="#132e65" stroke-width="1.5"></path><path d="M1560.55 489.22L1406.95 358.16" stroke="#132e65" stroke-width="1.5"></path><path d="M1560.55 489.22L1442.23 661.98" stroke="#132e65" stroke-width="1.5"></path><path d="M1572.67 678.99L1572.67 678.99" stroke="#132e65" stroke-width="1.5"></path><path d="M1572.67 678.99L1592.09 803.83" stroke="#132e65" stroke-width="1.5"></path><path d="M1572.67 678.99L1408.74 532.07" stroke="#132e65" stroke-width="1.5"></path><path d="M1572.67 678.99L1308.21 691.39" stroke="#132e65" stroke-width="1.5"></path><path d="M1592.09 803.83L1592.09 803.83" stroke="#132e65" stroke-width="1.5"></path><circle r="5" cx="-63.63" cy="492.23" fill="#132e65"></circle><circle r="5" cx="-75.2" cy="685.25" fill="#132e65"></circle><circle r="5" cx="-91.69" cy="854.1" fill="#132e65"></circle><circle r="5" cx="77.09" cy="512.17" fill="#132e65"></circle><circle r="5" cx="93.02" cy="688.47" fill="#132e65"></circle><circle r="5" cx="94.27" cy="848.73" fill="#132e65"></circle><circle r="5" cx="190.97" cy="492.17" fill="#132e65"></circle><circle r="5" cx="196.17" cy="808.06" fill="#132e65"></circle><circle r="5" cx="347.32" cy="515.47" fill="#132e65"></circle><circle r="5" cx="375.53" cy="654.92" fill="#132e65"></circle><circle r="5" cx="399.36" cy="854.31" fill="#132e65"></circle><circle r="5" cx="534.23" cy="376.06" fill="#132e65"></circle><circle r="5" cx="554.54" cy="539.51" fill="#132e65"></circle><circle r="5" cx="540.84" cy="703.94" fill="#132e65"></circle><circle r="5" cx="502.89" cy="832.78" fill="#132e65"></circle><circle r="5" cx="689.46" cy="371.24" fill="#132e65"></circle><circle r="5" cx="697.68" cy="667.54" fill="#132e65"></circle><circle r="5" cx="654.57" cy="833.27" fill="#132e65"></circle><circle r="5" cx="861.56" cy="198.99" fill="#132e65"></circle><circle r="5" cx="823.02" cy="520.99" fill="#132e65"></circle><circle r="5" cx="835.04" cy="704.64" fill="#132e65"></circle><circle r="5" cx="945.6" cy="-57.67" fill="#132e65"></circle><circle r="5" cx="1000.17" cy="252.25" fill="#132e65"></circle><circle r="5" cx="960.1" cy="393.95" fill="#132e65"></circle><circle r="5" cx="969.07" cy="560.12" fill="#132e65"></circle><circle r="5" cx="971.13" cy="685.33" fill="#132e65"></circle><circle r="5" cx="944.64" cy="788.25" fill="#132e65"></circle><circle r="5" cx="1099.24" cy="-58.78" fill="#132e65"></circle><circle r="5" cx="1150.62" cy="222.4" fill="#132e65"></circle><circle r="5" cx="1143" cy="396.15" fill="#132e65"></circle><circle r="5" cx="1145.61" cy="531.07" fill="#132e65"></circle><circle r="5" cx="1113.18" cy="657.63" fill="#132e65"></circle><circle r="5" cx="1088.37" cy="792.89" fill="#132e65"></circle><circle r="5" cx="1289.59" cy="-90.1" fill="#132e65"></circle><circle r="5" cx="1299.21" cy="64.35" fill="#132e65"></circle><circle r="5" cx="1240.88" cy="255.54" fill="#132e65"></circle><circle r="5" cx="1259.02" cy="386.94" fill="#132e65"></circle><circle r="5" cx="1281.05" cy="541.64" fill="#132e65"></circle><circle r="5" cx="1308.21" cy="691.39" fill="#132e65"></circle><circle r="5" cx="1272.4" cy="807.41" fill="#132e65"></circle><circle r="5" cx="1406.41" cy="-39.97" fill="#132e65"></circle><circle r="5" cx="1424.81" cy="59.19" fill="#132e65"></circle><circle r="5" cx="1392.64" cy="251.12" fill="#132e65"></circle><circle r="5" cx="1406.95" cy="358.16" fill="#132e65"></circle><circle r="5" cx="1408.74" cy="532.07" fill="#132e65"></circle><circle r="5" cx="1442.23" cy="661.98" fill="#132e65"></circle><circle r="5" cx="1440.69" cy="803.63" fill="#132e65"></circle><circle r="5" cx="1559.3" cy="-65.88" fill="#132e65"></circle><circle r="5" cx="1587.48" cy="70.15" fill="#132e65"></circle><circle r="5" cx="1609.85" cy="189.5" fill="#132e65"></circle><circle r="5" cx="1559.18" cy="341.22" fill="#132e65"></circle><circle r="5" cx="1560.55" cy="489.22" fill="#132e65"></circle><circle r="5" cx="1572.67" cy="678.99" fill="#132e65"></circle><circle r="5" cx="1592.09" cy="803.83" fill="#132e65"></circle><path d="M-91.3 700.45L-91.3 700.45" stroke="hsl(228.5, 77.2%, 51.5%)" stroke-width="1.5"></path><path d="M-91.3 700.45L-51.1 796.96" stroke="hsl(228.5, 77.2%, 51.5%)" stroke-width="1.5"></path><path d="M-91.3 700.45L93.39 661.92" stroke="hsl(228.5, 77.2%, 51.5%)" stroke-width="1.5"></path><path d="M-91.3 700.45L58.26 836.62" stroke="hsl(228.5, 77.2%, 51.5%)" stroke-width="1.5"></path><path d="M-91.3 700.45L258.16 712.48" stroke="hsl(228.5, 77.2%, 51.5%)" stroke-width="1.5"></path><path d="M-91.3 700.45L245.41 805.52" stroke="hsl(228.5, 77.2%, 51.5%)" stroke-width="1.5"></path><path d="M-91.3 700.45L387.48 666.98" stroke="hsl(228.5, 77.2%, 51.5%)" stroke-width="1.5"></path><path d="M93.39 661.92L93.39 661.92" stroke="hsl(228.5, 77.2%, 51.5%)" stroke-width="1.5"></path><path d="M93.39 661.92L258.16 712.48" stroke="hsl(228.5, 77.2%, 51.5%)" stroke-width="1.5"></path><path d="M93.39 661.92L58.26 836.62" stroke="hsl(228.5, 77.2%, 51.5%)" stroke-width="1.5"></path><path d="M93.39 661.92L-51.1 796.96" stroke="hsl(228.5, 77.2%, 51.5%)" stroke-width="1.5"></path><path d="M93.39 661.92L245.41 805.52" stroke="hsl(228.5, 77.2%, 51.5%)" stroke-width="1.5"></path><path d="M245.41 805.52L245.41 805.52" stroke="hsl(228.5, 77.2%, 51.5%)" stroke-width="1.5"></path><path d="M245.41 805.52L258.16 712.48" stroke="hsl(228.5, 77.2%, 51.5%)" stroke-width="1.5"></path><path d="M799.73 542.93L799.73 542.93" stroke="hsl(228.5, 77.2%, 51.5%)" stroke-width="1.5"></path><path d="M799.73 542.93L681.34 503.21" stroke="hsl(228.5, 77.2%, 51.5%)" stroke-width="1.5"></path><path d="M799.73 542.93L831.76 682.55" stroke="hsl(228.5, 77.2%, 51.5%)" stroke-width="1.5"></path><path d="M799.73 542.93L704.86 663.41" stroke="hsl(228.5, 77.2%, 51.5%)" stroke-width="1.5"></path><path d="M799.73 542.93L981.04 646.94" stroke="hsl(228.5, 77.2%, 51.5%)" stroke-width="1.5"></path><path d="M799.73 542.93L937.86 361.53" stroke="hsl(228.5, 77.2%, 51.5%)" stroke-width="1.5"></path><path d="M937.86 361.53L937.86 361.53" stroke="hsl(228.5, 77.2%, 51.5%)" stroke-width="1.5"></path><path d="M937.86 361.53L1127.89 215.46" stroke="hsl(228.5, 77.2%, 51.5%)" stroke-width="1.5"></path><path d="M937.86 361.53L1155.02 489.73" stroke="hsl(228.5, 77.2%, 51.5%)" stroke-width="1.5"></path><path d="M937.86 361.53L981.04 646.94" stroke="hsl(228.5, 77.2%, 51.5%)" stroke-width="1.5"></path><path d="M937.86 361.53L681.34 503.21" stroke="hsl(228.5, 77.2%, 51.5%)" stroke-width="1.5"></path><path d="M937.86 361.53L1255.98 375.08" stroke="hsl(228.5, 77.2%, 51.5%)" stroke-width="1.5"></path><path d="M981.04 646.94L981.04 646.94" stroke="hsl(228.5, 77.2%, 51.5%)" stroke-width="1.5"></path><path d="M981.04 646.94L1124.46 668.67" stroke="hsl(228.5, 77.2%, 51.5%)" stroke-width="1.5"></path><path d="M981.04 646.94L831.76 682.55" stroke="hsl(228.5, 77.2%, 51.5%)" stroke-width="1.5"></path><path d="M981.04 646.94L848.36 803.13" stroke="hsl(228.5, 77.2%, 51.5%)" stroke-width="1.5"></path><path d="M981.04 646.94L956.97 850.65" stroke="hsl(228.5, 77.2%, 51.5%)" stroke-width="1.5"></path><path d="M981.04 646.94L1155.02 489.73" stroke="hsl(228.5, 77.2%, 51.5%)" stroke-width="1.5"></path><path d="M1124.46 668.67L1124.46 668.67" stroke="hsl(228.5, 77.2%, 51.5%)" stroke-width="1.5"></path><path d="M1124.46 668.67L1155.02 489.73" stroke="hsl(228.5, 77.2%, 51.5%)" stroke-width="1.5"></path><path d="M1124.46 668.67L1303.72 710.41" stroke="hsl(228.5, 77.2%, 51.5%)" stroke-width="1.5"></path><path d="M1124.46 668.67L1110.02 855.6" stroke="hsl(228.5, 77.2%, 51.5%)" stroke-width="1.5"></path><path d="M1124.46 668.67L1262.17 527.99" stroke="hsl(228.5, 77.2%, 51.5%)" stroke-width="1.5"></path><path d="M1124.46 668.67L1239 848" stroke="hsl(228.5, 77.2%, 51.5%)" stroke-width="1.5"></path><path d="M1303.72 710.41L1303.72 710.41" stroke="hsl(228.5, 77.2%, 51.5%)" stroke-width="1.5"></path><path d="M1303.72 710.41L1239 848" stroke="hsl(228.5, 77.2%, 51.5%)" stroke-width="1.5"></path><path d="M1303.72 710.41L1453.04 663.96" stroke="hsl(228.5, 77.2%, 51.5%)" stroke-width="1.5"></path><path d="M1303.72 710.41L1262.17 527.99" stroke="hsl(228.5, 77.2%, 51.5%)" stroke-width="1.5"></path><path d="M1303.72 710.41L1454.14 842.1" stroke="hsl(228.5, 77.2%, 51.5%)" stroke-width="1.5"></path><path d="M1447.43 340.72L1447.43 340.72" stroke="hsl(228.5, 77.2%, 51.5%)" stroke-width="1.5"></path><path d="M1447.43 340.72L1543.39 379.03" stroke="hsl(228.5, 77.2%, 51.5%)" stroke-width="1.5"></path><path d="M1447.43 340.72L1427.86 227.46" stroke="hsl(228.5, 77.2%, 51.5%)" stroke-width="1.5"></path><path d="M1447.43 340.72L1255.98 375.08" stroke="hsl(228.5, 77.2%, 51.5%)" stroke-width="1.5"></path><path d="M1447.43 340.72L1603.08 208.78" stroke="hsl(228.5, 77.2%, 51.5%)" stroke-width="1.5"></path><path d="M1453.04 663.96L1453.04 663.96" stroke="hsl(228.5, 77.2%, 51.5%)" stroke-width="1.5"></path><path d="M1453.04 663.96L1566.71 689.97" stroke="hsl(228.5, 77.2%, 51.5%)" stroke-width="1.5"></path><path d="M1453.04 663.96L1547.76 530.6" stroke="hsl(228.5, 77.2%, 51.5%)" stroke-width="1.5"></path><path d="M1453.04 663.96L1537.95 806.82" stroke="hsl(228.5, 77.2%, 51.5%)" stroke-width="1.5"></path><path d="M1453.04 663.96L1454.14 842.1" stroke="hsl(228.5, 77.2%, 51.5%)" stroke-width="1.5"></path><path d="M1453.04 663.96L1262.17 527.99" stroke="hsl(228.5, 77.2%, 51.5%)" stroke-width="1.5"></path><path d="M1454.14 842.1L1454.14 842.1" stroke="hsl(228.5, 77.2%, 51.5%)" stroke-width="1.5"></path><path d="M1454.14 842.1L1537.95 806.82" stroke="hsl(228.5, 77.2%, 51.5%)" stroke-width="1.5"></path><path d="M1543.39 379.03L1543.39 379.03" stroke="hsl(228.5, 77.2%, 51.5%)" stroke-width="1.5"></path><path d="M1543.39 379.03L1547.76 530.6" stroke="hsl(228.5, 77.2%, 51.5%)" stroke-width="1.5"></path><path d="M1543.39 379.03L1603.08 208.78" stroke="hsl(228.5, 77.2%, 51.5%)" stroke-width="1.5"></path><path d="M1537.95 806.82L1537.95 806.82" stroke="hsl(228.5, 77.2%, 51.5%)" stroke-width="1.5"></path><path d="M1537.95 806.82L1566.71 689.97" stroke="hsl(228.5, 77.2%, 51.5%)" stroke-width="1.5"></path><path d="M-51.1 796.96L-51.1 796.96" stroke="hsl(228.5, 77.2%, 51.5%)" stroke-width="1.5"></path><path d="M-51.1 796.96L58.26 836.62" stroke="hsl(228.5, 77.2%, 51.5%)" stroke-width="1.5"></path><path d="M-51.1 796.96L245.41 805.52" stroke="hsl(228.5, 77.2%, 51.5%)" stroke-width="1.5"></path><path d="M58.26 836.62L58.26 836.62" stroke="hsl(228.5, 77.2%, 51.5%)" stroke-width="1.5"></path><path d="M58.26 836.62L245.41 805.52" stroke="hsl(228.5, 77.2%, 51.5%)" stroke-width="1.5"></path><path d="M258.16 712.48L258.16 712.48" stroke="hsl(228.5, 77.2%, 51.5%)" stroke-width="1.5"></path><path d="M258.16 712.48L387.48 666.98" stroke="hsl(228.5, 77.2%, 51.5%)" stroke-width="1.5"></path><path d="M387.48 666.98L387.48 666.98" stroke="hsl(228.5, 77.2%, 51.5%)" stroke-width="1.5"></path><path d="M387.48 666.98L500.25 662.55" stroke="hsl(228.5, 77.2%, 51.5%)" stroke-width="1.5"></path><path d="M387.48 666.98L493.41 813.28" stroke="hsl(228.5, 77.2%, 51.5%)" stroke-width="1.5"></path><path d="M387.48 666.98L245.41 805.52" stroke="hsl(228.5, 77.2%, 51.5%)" stroke-width="1.5"></path><path d="M500.25 662.55L500.25 662.55" stroke="hsl(228.5, 77.2%, 51.5%)" stroke-width="1.5"></path><path d="M500.25 662.55L493.41 813.28" stroke="hsl(228.5, 77.2%, 51.5%)" stroke-width="1.5"></path><path d="M500.25 662.55L704.86 663.41" stroke="hsl(228.5, 77.2%, 51.5%)" stroke-width="1.5"></path><path d="M493.41 813.28L493.41 813.28" stroke="hsl(228.5, 77.2%, 51.5%)" stroke-width="1.5"></path><path d="M493.41 813.28L696.5 812.62" stroke="hsl(228.5, 77.2%, 51.5%)" stroke-width="1.5"></path><path d="M493.41 813.28L245.41 805.52" stroke="hsl(228.5, 77.2%, 51.5%)" stroke-width="1.5"></path><path d="M493.41 813.28L258.16 712.48" stroke="hsl(228.5, 77.2%, 51.5%)" stroke-width="1.5"></path><path d="M681.34 503.21L681.34 503.21" stroke="hsl(228.5, 77.2%, 51.5%)" stroke-width="1.5"></path><path d="M681.34 503.21L704.86 663.41" stroke="hsl(228.5, 77.2%, 51.5%)" stroke-width="1.5"></path><path d="M681.34 503.21L831.76 682.55" stroke="hsl(228.5, 77.2%, 51.5%)" stroke-width="1.5"></path><path d="M681.34 503.21L500.25 662.55" stroke="hsl(228.5, 77.2%, 51.5%)" stroke-width="1.5"></path><path d="M681.34 503.21L696.5 812.62" stroke="hsl(228.5, 77.2%, 51.5%)" stroke-width="1.5"></path><path d="M704.86 663.41L704.86 663.41" stroke="hsl(228.5, 77.2%, 51.5%)" stroke-width="1.5"></path><path d="M704.86 663.41L831.76 682.55" stroke="hsl(228.5, 77.2%, 51.5%)" stroke-width="1.5"></path><path d="M696.5 812.62L696.5 812.62" stroke="hsl(228.5, 77.2%, 51.5%)" stroke-width="1.5"></path><path d="M696.5 812.62L704.86 663.41" stroke="hsl(228.5, 77.2%, 51.5%)" stroke-width="1.5"></path><path d="M696.5 812.62L848.36 803.13" stroke="hsl(228.5, 77.2%, 51.5%)" stroke-width="1.5"></path><path d="M696.5 812.62L831.76 682.55" stroke="hsl(228.5, 77.2%, 51.5%)" stroke-width="1.5"></path><path d="M696.5 812.62L500.25 662.55" stroke="hsl(228.5, 77.2%, 51.5%)" stroke-width="1.5"></path><path d="M831.76 682.55L831.76 682.55" stroke="hsl(228.5, 77.2%, 51.5%)" stroke-width="1.5"></path><path d="M831.76 682.55L848.36 803.13" stroke="hsl(228.5, 77.2%, 51.5%)" stroke-width="1.5"></path><path d="M848.36 803.13L848.36 803.13" stroke="hsl(228.5, 77.2%, 51.5%)" stroke-width="1.5"></path><path d="M848.36 803.13L956.97 850.65" stroke="hsl(228.5, 77.2%, 51.5%)" stroke-width="1.5"></path><path d="M956.97 850.65L956.97 850.65" stroke="hsl(228.5, 77.2%, 51.5%)" stroke-width="1.5"></path><path d="M956.97 850.65L1110.02 855.6" stroke="hsl(228.5, 77.2%, 51.5%)" stroke-width="1.5"></path><path d="M1160.9 96.79L1160.9 96.79" stroke="hsl(228.5, 77.2%, 51.5%)" stroke-width="1.5"></path><path d="M1160.9 96.79L1261.95 94.63" stroke="hsl(228.5, 77.2%, 51.5%)" stroke-width="1.5"></path><path d="M1160.9 96.79L1127.89 215.46" stroke="hsl(228.5, 77.2%, 51.5%)" stroke-width="1.5"></path><path d="M1127.89 215.46L1127.89 215.46" stroke="hsl(228.5, 77.2%, 51.5%)" stroke-width="1.5"></path><path d="M1127.89 215.46L1255.21 254.74" stroke="hsl(228.5, 77.2%, 51.5%)" stroke-width="1.5"></path><path d="M1127.89 215.46L1261.95 94.63" stroke="hsl(228.5, 77.2%, 51.5%)" stroke-width="1.5"></path><path d="M1127.89 215.46L1255.98 375.08" stroke="hsl(228.5, 77.2%, 51.5%)" stroke-width="1.5"></path><path d="M1127.89 215.46L1155.02 489.73" stroke="hsl(228.5, 77.2%, 51.5%)" stroke-width="1.5"></path><path d="M1155.02 489.73L1155.02 489.73" stroke="hsl(228.5, 77.2%, 51.5%)" stroke-width="1.5"></path><path d="M1155.02 489.73L1262.17 527.99" stroke="hsl(228.5, 77.2%, 51.5%)" stroke-width="1.5"></path><path d="M1110.02 855.6L1110.02 855.6" stroke="hsl(228.5, 77.2%, 51.5%)" stroke-width="1.5"></path><path d="M1110.02 855.6L1239 848" stroke="hsl(228.5, 77.2%, 51.5%)" stroke-width="1.5"></path><path d="M1293.78 -45.5L1293.78 -45.5" stroke="hsl(228.5, 77.2%, 51.5%)" stroke-width="1.5"></path><path d="M1293.78 -45.5L1403.81 -40.16" stroke="hsl(228.5, 77.2%, 51.5%)" stroke-width="1.5"></path><path d="M1293.78 -45.5L1261.95 94.63" stroke="hsl(228.5, 77.2%, 51.5%)" stroke-width="1.5"></path><path d="M1293.78 -45.5L1425 65.59" stroke="hsl(228.5, 77.2%, 51.5%)" stroke-width="1.5"></path><path d="M1293.78 -45.5L1160.9 96.79" stroke="hsl(228.5, 77.2%, 51.5%)" stroke-width="1.5"></path><path d="M1261.95 94.63L1261.95 94.63" stroke="hsl(228.5, 77.2%, 51.5%)" stroke-width="1.5"></path><path d="M1261.95 94.63L1255.21 254.74" stroke="hsl(228.5, 77.2%, 51.5%)" stroke-width="1.5"></path><path d="M1261.95 94.63L1425 65.59" stroke="hsl(228.5, 77.2%, 51.5%)" stroke-width="1.5"></path><path d="M1255.21 254.74L1255.21 254.74" stroke="hsl(228.5, 77.2%, 51.5%)" stroke-width="1.5"></path><path d="M1255.21 254.74L1255.98 375.08" stroke="hsl(228.5, 77.2%, 51.5%)" stroke-width="1.5"></path><path d="M1255.21 254.74L1427.86 227.46" stroke="hsl(228.5, 77.2%, 51.5%)" stroke-width="1.5"></path><path d="M1255.98 375.08L1255.98 375.08" stroke="hsl(228.5, 77.2%, 51.5%)" stroke-width="1.5"></path><path d="M1255.98 375.08L1155.02 489.73" stroke="hsl(228.5, 77.2%, 51.5%)" stroke-width="1.5"></path><path d="M1255.98 375.08L1262.17 527.99" stroke="hsl(228.5, 77.2%, 51.5%)" stroke-width="1.5"></path><path d="M1255.98 375.08L1427.86 227.46" stroke="hsl(228.5, 77.2%, 51.5%)" stroke-width="1.5"></path><path d="M1262.17 527.99L1262.17 527.99" stroke="hsl(228.5, 77.2%, 51.5%)" stroke-width="1.5"></path><path d="M1262.17 527.99L1447.43 340.72" stroke="hsl(228.5, 77.2%, 51.5%)" stroke-width="1.5"></path><path d="M1239 848L1239 848" stroke="hsl(228.5, 77.2%, 51.5%)" stroke-width="1.5"></path><path d="M1403.81 -40.16L1403.81 -40.16" stroke="hsl(228.5, 77.2%, 51.5%)" stroke-width="1.5"></path><path d="M1403.81 -40.16L1425 65.59" stroke="hsl(228.5, 77.2%, 51.5%)" stroke-width="1.5"></path><path d="M1403.81 -40.16L1547.92 -55.69" stroke="hsl(228.5, 77.2%, 51.5%)" stroke-width="1.5"></path><path d="M1403.81 -40.16L1261.95 94.63" stroke="hsl(228.5, 77.2%, 51.5%)" stroke-width="1.5"></path><path d="M1403.81 -40.16L1596.85 93.73" stroke="hsl(228.5, 77.2%, 51.5%)" stroke-width="1.5"></path><path d="M1403.81 -40.16L1427.86 227.46" stroke="hsl(228.5, 77.2%, 51.5%)" stroke-width="1.5"></path><path d="M1425 65.59L1425 65.59" stroke="hsl(228.5, 77.2%, 51.5%)" stroke-width="1.5"></path><path d="M1427.86 227.46L1427.86 227.46" stroke="hsl(228.5, 77.2%, 51.5%)" stroke-width="1.5"></path><path d="M1427.86 227.46L1425 65.59" stroke="hsl(228.5, 77.2%, 51.5%)" stroke-width="1.5"></path><path d="M1427.86 227.46L1603.08 208.78" stroke="hsl(228.5, 77.2%, 51.5%)" stroke-width="1.5"></path><path d="M1427.86 227.46L1543.39 379.03" stroke="hsl(228.5, 77.2%, 51.5%)" stroke-width="1.5"></path><path d="M1547.92 -55.69L1547.92 -55.69" stroke="hsl(228.5, 77.2%, 51.5%)" stroke-width="1.5"></path><path d="M1547.92 -55.69L1596.85 93.73" stroke="hsl(228.5, 77.2%, 51.5%)" stroke-width="1.5"></path><path d="M1547.92 -55.69L1425 65.59" stroke="hsl(228.5, 77.2%, 51.5%)" stroke-width="1.5"></path><path d="M1547.92 -55.69L1293.78 -45.5" stroke="hsl(228.5, 77.2%, 51.5%)" stroke-width="1.5"></path><path d="M1547.92 -55.69L1603.08 208.78" stroke="hsl(228.5, 77.2%, 51.5%)" stroke-width="1.5"></path><path d="M1596.85 93.73L1596.85 93.73" stroke="hsl(228.5, 77.2%, 51.5%)" stroke-width="1.5"></path><path d="M1596.85 93.73L1603.08 208.78" stroke="hsl(228.5, 77.2%, 51.5%)" stroke-width="1.5"></path><path d="M1596.85 93.73L1425 65.59" stroke="hsl(228.5, 77.2%, 51.5%)" stroke-width="1.5"></path><path d="M1603.08 208.78L1603.08 208.78" stroke="hsl(228.5, 77.2%, 51.5%)" stroke-width="1.5"></path><path d="M1547.76 530.6L1547.76 530.6" stroke="hsl(228.5, 77.2%, 51.5%)" stroke-width="1.5"></path><path d="M1547.76 530.6L1566.71 689.97" stroke="hsl(228.5, 77.2%, 51.5%)" stroke-width="1.5"></path><path d="M1547.76 530.6L1447.43 340.72" stroke="hsl(228.5, 77.2%, 51.5%)" stroke-width="1.5"></path><path d="M1547.76 530.6L1537.95 806.82" stroke="hsl(228.5, 77.2%, 51.5%)" stroke-width="1.5"></path><path d="M1547.76 530.6L1262.17 527.99" stroke="hsl(228.5, 77.2%, 51.5%)" stroke-width="1.5"></path><path d="M1566.71 689.97L1566.71 689.97" stroke="hsl(228.5, 77.2%, 51.5%)" stroke-width="1.5"></path><circle r="25" cx="-91.3" cy="700.45" fill="url(#SvgjsRadialGradient1013)"></circle><circle r="25" cx="93.39" cy="661.92" fill="url(#SvgjsRadialGradient1013)"></circle><circle r="25" cx="245.41" cy="805.52" fill="url(#SvgjsRadialGradient1013)"></circle><circle r="25" cx="799.73" cy="542.93" fill="url(#SvgjsRadialGradient1013)"></circle><circle r="25" cx="937.86" cy="361.53" fill="url(#SvgjsRadialGradient1013)"></circle><circle r="25" cx="981.04" cy="646.94" fill="url(#SvgjsRadialGradient1013)"></circle><circle r="25" cx="1124.46" cy="668.67" fill="url(#SvgjsRadialGradient1013)"></circle><circle r="25" cx="1303.72" cy="710.41" fill="url(#SvgjsRadialGradient1013)"></circle><circle r="25" cx="1447.43" cy="340.72" fill="url(#SvgjsRadialGradient1013)"></circle><circle r="25" cx="1453.04" cy="663.96" fill="url(#SvgjsRadialGradient1013)"></circle><circle r="25" cx="1454.14" cy="842.1" fill="url(#SvgjsRadialGradient1013)"></circle><circle r="25" cx="1543.39" cy="379.03" fill="url(#SvgjsRadialGradient1013)"></circle><circle r="25" cx="1537.95" cy="806.82" fill="url(#SvgjsRadialGradient1013)"></circle><circle r="5" cx="-51.1" cy="796.96" fill="#8b9ad9"></circle><circle r="5" cx="58.26" cy="836.62" fill="#8b9ad9"></circle><circle r="5" cx="258.16" cy="712.48" fill="#8b9ad9"></circle><circle r="5" cx="387.48" cy="666.98" fill="#8b9ad9"></circle><circle r="5" cx="500.25" cy="662.55" fill="#8b9ad9"></circle><circle r="5" cx="493.41" cy="813.28" fill="#8b9ad9"></circle><circle r="5" cx="681.34" cy="503.21" fill="#8b9ad9"></circle><circle r="5" cx="704.86" cy="663.41" fill="#8b9ad9"></circle><circle r="5" cx="696.5" cy="812.62" fill="#8b9ad9"></circle><circle r="5" cx="831.76" cy="682.55" fill="#8b9ad9"></circle><circle r="5" cx="848.36" cy="803.13" fill="#8b9ad9"></circle><circle r="5" cx="956.97" cy="850.65" fill="#8b9ad9"></circle><circle r="5" cx="1160.9" cy="96.79" fill="#8b9ad9"></circle><circle r="5" cx="1127.89" cy="215.46" fill="#8b9ad9"></circle><circle r="5" cx="1155.02" cy="489.73" fill="#8b9ad9"></circle><circle r="5" cx="1110.02" cy="855.6" fill="#8b9ad9"></circle><circle r="5" cx="1293.78" cy="-45.5" fill="#8b9ad9"></circle><circle r="5" cx="1261.95" cy="94.63" fill="#8b9ad9"></circle><circle r="5" cx="1255.21" cy="254.74" fill="#8b9ad9"></circle><circle r="5" cx="1255.98" cy="375.08" fill="#8b9ad9"></circle><circle r="5" cx="1262.17" cy="527.99" fill="#8b9ad9"></circle><circle r="5" cx="1239" cy="848" fill="#8b9ad9"></circle><circle r="5" cx="1403.81" cy="-40.16" fill="#8b9ad9"></circle><circle r="5" cx="1425" cy="65.59" fill="#8b9ad9"></circle><circle r="5" cx="1427.86" cy="227.46" fill="#8b9ad9"></circle><circle r="5" cx="1547.92" cy="-55.69" fill="#8b9ad9"></circle><circle r="5" cx="1596.85" cy="93.73" fill="#8b9ad9"></circle><circle r="5" cx="1603.08" cy="208.78" fill="#8b9ad9"></circle><circle r="5" cx="1547.76" cy="530.6" fill="#8b9ad9"></circle><circle r="5" cx="1566.71" cy="689.97" fill="#8b9ad9"></circle></g><defs><mask id="SvgjsMask1012"><rect width="1440" height="720" fill="#ffffff"></rect></mask><radialGradient id="SvgjsRadialGradient1013"><stop stop-color="#ffffff" offset="0.1"></stop><stop stop-color="#1735b3" offset="0.2"></stop><stop stop-color="rgba(23, 53, 179, 0)" offset="1"></stop></radialGradient></defs></svg>