<svg xmlns="http://www.w3.org/2000/svg" version="1.1" xmlns:xlink="http://www.w3.org/1999/xlink" xmlns:svgjs="http://svgjs.com/svgjs" width="1440" height="720" preserveAspectRatio="none" viewBox="0 0 1440 720"><g mask="url(&quot;#SvgjsMask1017&quot;)" fill="none"><rect width="1440" height="720" x="0" y="0" fill="#0e2a47"></rect><path d="M0,444.251C93.446,456.396,191.78,471.438,276.625,430.437C365.656,387.413,425.108,302.556,472.641,215.848C522.93,124.112,574.756,22.997,556.443,-80.004C538.281,-182.155,458.281,-262.479,376.291,-326.058C303.799,-382.271,209.41,-387.775,122.334,-416.632C31.458,-446.748,-53.463,-521.41,-146.623,-499.353C-240.208,-477.195,-297.053,-383.831,-351.38,-304.473C-400.966,-232.041,-433.367,-150.982,-444.7,-63.938C-455.921,22.244,-454.13,111.892,-415.742,189.863C-377.907,266.712,-307.04,319.365,-233.975,364.073C-162.198,407.993,-83.446,433.405,0,444.251" fill="#0b2239"></path><path d="M1440 1214.541C1535.298 1220.732 1629.29 1191.103 1711.128 1141.883 1794.597 1091.682 1859.9940000000001 1018.543 1907.38 933.4449999999999 1957.6979999999999 843.081 2020.0700000000002 739.897 1990.088 640.909 1960.1190000000001 541.9639999999999 1829.211 519.471 1759.005 443.58 1692.153 371.315 1686.4569999999999 229.055 1590.161 208.59699999999998 1491.795 187.69899999999996 1422.307 308.239 1332.212 352.909 1261.84 387.8 1180.134 392.441 1119.2559999999999 442.074 1050.702 497.966 987.865 566.187 965.613 651.793 942.217 741.798 952.95 840.239 994.078 923.646 1034.63 1005.884 1113.807 1057.97 1190.604 1108.068 1267.876 1158.476 1347.934 1208.56 1440 1214.541" fill="#113255"></path></g><defs><mask id="SvgjsMask1017"><rect width="1440" height="720" fill="#ffffff"></rect></mask></defs></svg>