<svg xmlns="http://www.w3.org/2000/svg" version="1.1" xmlns:xlink="http://www.w3.org/1999/xlink" xmlns:svgjs="http://svgjs.com/svgjs" width="1440" height="740" preserveAspectRatio="none" viewBox="0 0 1440 740"><g mask="url(&quot;#SvgjsMask1009&quot;)" fill="none"><rect width="1440" height="740" x="0" y="0" fill="#0e2a47"></rect><path d="M 0,272 C 57.6,230.8 172.8,57 288,66 C 403.2,75 460.8,300.6 576,317 C 691.2,333.4 748.8,141.8 864,148 C 979.2,154.2 1036.8,372.2 1152,348 C 1267.2,323.8 1382.4,91.2 1440,27L1440 740L0 740z" fill="#184a7e"></path><path d="M 0,526 C 96,566.4 288,745.6 480,728 C 672,710.4 768,460.4 960,438 C 1152,415.6 1344,580.4 1440,616L1440 740L0 740z" fill="#2264ab"></path></g><defs><mask id="SvgjsMask1009"><rect width="1440" height="740" fill="#ffffff"></rect></mask></defs></svg>